<svg width="1000" height="1000" viewBox="0 0 1000 1000" fill="none" xmlns="http://www.w3.org/2000/svg">
<g id="Smart Campus - Logo --transparentne">
<g id="Group 305">
<path id="Vector" d="M128 286C128 285.555 128 285.111 128.345 284.246C136.269 279.24 143.859 274.673 151.424 270.065C170.15 258.659 188.862 247.228 207.585 235.817C227.278 223.814 246.972 211.812 266.677 199.828C286.924 187.515 307.202 175.252 327.436 162.917C349.884 149.232 372.281 135.463 394.731 121.783C414.288 109.866 433.919 98.0707 453.459 86.1264C467.024 77.8347 480.49 69.3812 494 61C494.75 61 495.5 61 496.715 61.3461C505.123 66.2982 513.097 70.8536 521.005 75.5201C540.579 87.0711 560.094 98.7248 579.69 110.239C598.039 121.021 616.492 131.629 634.846 142.402C652.779 152.928 670.62 163.61 688.55 174.143C708.568 185.902 728.679 197.504 748.679 209.297C768.685 221.093 788.589 233.063 808.563 244.913C823.119 253.549 837.676 262.185 852.313 270.681C859.109 274.626 866.098 278.237 873 282C873 282.75 873 283.5 872.627 284.628C872.088 285.017 871.89 284.973 871.761 285.047C847.682 299.013 823.591 312.959 799.55 326.991C795.754 329.207 790.07 330.232 792.057 337.389C792.042 372.602 792.062 407.343 792.045 442.546C792.005 469.502 791.99 495.996 792.032 522.49C792.034 524.078 792.258 525.75 792.782 527.24C800.949 550.456 809.125 573.669 817.476 596.819C818.526 599.731 817.604 600.88 815.194 602.004C802.772 607.802 790.383 613.671 777.993 619.538C775.049 620.932 772.414 621.143 769.413 619.187C766.615 617.365 763.265 616.405 760.201 614.974C749.761 610.097 739.341 605.18 728.998 600.319C736.084 580.438 743.095 560.923 749.978 541.362C752.161 535.159 755.486 528.891 755.723 522.557C756.452 503.091 755.938 483.578 755.935 463.611C755.942 428.067 755.922 392.996 755.946 357.525C755.99 355.561 755.99 353.996 755.99 352.271C747.343 357.219 739.057 361.884 730.844 366.676C715.374 375.701 699.982 384.859 684.492 393.847C669.01 402.831 653.427 411.641 637.925 420.59C622.145 429.7 606.397 438.864 590.659 448.046C575.189 457.072 559.765 466.176 544.292 475.196C530.773 483.077 517.248 490.949 503.621 498.64C502.232 499.424 499.734 499.652 498.413 498.928C486.819 492.57 475.344 485.994 463.895 479.375C445.319 468.635 426.812 457.777 408.234 447.041C396.087 440.021 383.842 433.173 371.686 426.168C355.473 416.824 339.328 407.361 323.11 398.026C308.713 389.738 294.233 381.593 279.83 373.314C263.472 363.91 247.173 354.401 230.82 344.988C216.557 336.779 202.245 328.655 187.971 320.465C167.973 308.991 147.99 297.49 128 286ZM775.26 340.796C780.308 337.842 785.356 334.887 791.586 331.241C697.91 311.536 605.683 292.137 513.456 272.737C519.345 275.823 525.42 278.023 531.567 279.999C555.592 287.72 579.632 295.396 603.682 303.041C631.372 311.844 659.094 320.548 686.773 329.387C706.859 335.801 726.906 342.336 746.949 348.883C752.452 350.681 757.603 351.896 762.888 347.759C766.383 345.023 770.672 343.303 775.26 340.796Z" fill="#082E3F"/>
<path id="S_Section" d="M128 555C128 466.979 128 378.958 128.345 290.556C133.134 292.784 137.561 295.423 142.025 297.997C155.724 305.894 169.462 313.723 183.14 321.658C198.77 330.726 214.344 339.892 229.957 348.991C243.896 357.114 257.85 365.21 271.807 373.303C287.162 382.207 302.529 391.09 317.888 399.988C331.846 408.074 345.802 416.166 359.758 424.259C375.113 433.164 390.463 442.079 405.823 450.978C419.78 459.064 433.741 467.144 447.712 475.208C463.22 484.161 478.704 493.158 494.294 501.966C496.846 503.408 498.099 504.773 498.083 507.935C497.941 536.426 498.005 564.918 497.983 593.41C497.982 594.597 497.733 595.783 497.568 597.257C422.852 553.975 348.635 510.982 274 467.746C274 493.23 273.945 517.888 274.113 542.546C274.125 544.351 275.253 546.973 276.686 547.816C290.166 555.746 303.868 563.297 317.42 571.107C331.264 579.084 344.996 587.257 358.806 595.294C374.147 604.222 389.523 613.089 404.882 621.987C418.841 630.073 432.798 638.162 446.753 646.255C462.11 655.161 477.372 664.236 492.886 672.859C496.511 674.874 498.108 676.763 498.101 681.075C497.966 766.716 498 852.358 498 938C497.556 938 497.111 938 496.232 937.655C494.758 936.861 493.66 936.514 492.689 935.948C474.998 925.634 457.356 915.234 439.632 904.975C419.253 893.178 398.769 881.56 378.394 869.755C356.766 857.223 335.245 844.506 313.617 831.973C293.243 820.167 272.753 808.558 252.383 796.744C232.991 785.498 213.698 774.079 194.341 762.771C177.486 752.925 160.631 743.078 143.715 733.336C138.58 730.379 133.244 727.769 128 725C128 694.312 128 663.625 128.373 632.471C132.733 634.1 136.801 636.056 140.694 638.314C163.166 651.347 185.58 664.48 208.049 677.521C221.304 685.214 234.642 692.767 247.909 700.439C262.295 708.759 276.651 717.131 291.006 725.504C304.663 733.469 318.289 741.488 331.955 749.438C338.13 753.03 344.37 756.512 350.999 760.282C350.999 735.263 351.075 710.942 350.835 686.624C350.818 684.945 348.789 682.696 347.111 681.716C330.95 672.284 314.61 663.159 298.425 653.769C274.137 639.677 249.961 625.392 225.682 611.285C210.2 602.29 194.602 593.496 179.087 584.559C162.039 574.738 145.027 564.855 128 555Z" fill="#082E3F"/>
<path id="Vector_2" d="M755.902 357.924C755.922 392.995 755.942 428.066 755.597 463.7C750.609 466.919 745.978 469.561 741.365 472.235C724.691 481.904 707.996 491.536 691.361 501.272C674.021 511.42 656.795 521.764 639.387 531.794C636.195 533.633 634.908 535.547 634.915 539.306C635.032 608.105 635 676.904 635 745.704C635 747.281 635 748.858 635 750.844C636.957 749.939 638.471 749.368 639.858 748.576C650.685 742.394 661.478 736.15 672.302 729.961C687.212 721.435 702.15 712.957 717.058 704.428C734.771 694.294 752.451 684.105 770.171 673.983C785.084 665.465 800.063 657.063 814.958 648.513C834.334 637.392 853.655 626.176 873 615C873 651.354 873 687.708 872.632 724.535C849.559 738.137 826.864 751.283 804.145 764.388C782.254 777.015 760.31 789.549 738.443 802.218C715.87 815.296 693.392 828.537 670.817 841.611C653.015 851.92 635.085 862.01 617.288 872.327C593.18 886.301 569.135 900.385 545.079 914.45C531.702 922.271 518.359 930.148 505 938C504.556 938 504.111 938 503.333 937.531C503 795.294 503 653.524 503 511.755C503 510.589 502.682 509.301 503.073 508.285C503.696 506.668 504.433 504.698 505.75 503.816C510.725 500.484 515.909 497.454 521.095 494.45C538.334 484.465 555.639 474.592 572.86 464.578C592.181 453.343 611.407 441.947 630.732 430.719C650.339 419.327 670.052 408.115 689.654 396.714C711.774 383.848 733.822 370.859 755.902 357.924Z" fill="#056774"/>
<path id="Vector_3" d="M873 394.531C860.651 402.335 848.322 409.702 835.949 416.996C822.317 425.033 808.647 433.005 794.986 440.992C794.297 441.394 793.533 441.667 792.443 442.042C792.062 407.343 792.042 372.602 792.389 337.303C801.531 331.635 810.305 326.526 819.078 321.415C837.052 310.944 855.026 300.472 873 290C873 324.688 873 359.375 873 394.531Z" fill="#056774"/>
<path id="Vector_4" d="M774.933 340.963C770.672 343.303 766.383 345.023 762.888 347.759C757.603 351.896 752.452 350.681 746.949 348.883C726.906 342.336 706.859 335.801 686.773 329.387C659.094 320.548 631.372 311.844 603.682 303.041C579.632 295.396 555.592 287.72 531.567 279.999C525.42 278.023 519.345 275.823 513.456 272.738C605.683 292.137 697.91 311.536 791.586 331.241C785.356 334.887 780.308 337.842 774.933 340.963Z" fill="#056774"/>
</g>
</g>
</svg>
