<svg width="12" height="13" viewBox="0 0 12 13" fill="none" xmlns="http://www.w3.org/2000/svg">
<path d="M11.7 10.8604H9.6V1.55098C9.6 0.894258 9.19631 0.360352 8.7 0.360352H3.29981C2.8035 0.360352 2.39981 0.894258 2.39981 1.55098V10.8604H0.3C0.13425 10.8604 0 11.0282 0 11.2354V11.9854C0 12.1925 0.13425 12.3604 0.3 12.3604H11.7C11.8658 12.3604 12 12.1925 12 11.9854V11.2354C12 11.0282 11.8658 10.8604 11.7 10.8604ZM7.79981 7.11035C7.4685 7.11035 7.19981 6.77449 7.19981 6.36035C7.19981 5.94621 7.4685 5.61035 7.79981 5.61035C8.13113 5.61035 8.39981 5.94621 8.39981 6.36035C8.4 6.77449 8.13131 7.11035 7.79981 7.11035Z" fill="#183447"/>
</svg>
