<svg width="1051" height="449" viewBox="0 0 1051 449" fill="none" xmlns="http://www.w3.org/2000/svg">
<g id="Puz_0">
<rect id="3" x="104.435" y="243.626" width="173.997" height="66.5854" fill="#EFF6FF"/>
<rect id="1" x="0.183105" y="257.967" width="90.4492" height="139.567" fill="#EFF6FF"/>
<rect id="4" x="288.919" y="243.626" width="69.6177" height="66.5854" fill="#EFF6FF"/>
<rect id="5" x="365.002" y="243.626" width="61.0908" height="66.5854" fill="#EFF6FF"/>
<rect id="8" x="470.041" y="291.899" width="41.3037" height="47.9028" fill="#EFF6FF"/>
<g id="6">
<path d="M516.684 282.669H541.879V339.802H516.684V282.669Z" fill="#FDFFC1"/>
<path d="M439.505 282.669H464.701V339.802H439.505V282.669Z" fill="#FDFFC1"/>
<path d="M439.505 224.082H541.879V282.669H439.505V224.082Z" fill="#FDFFC1"/>
</g>
<g id="2">
<path d="M104.435 327.751H426.093V397.534H104.435V327.751Z" fill="#626262"/>
<path d="M426.092 346.283H555.66V397.533L426.093 397.534L426.092 346.283Z" fill="#626262"/>
<path d="M440.875 397.533H541.879V425.783C541.879 438.486 531.582 448.783 518.879 448.783H463.875C451.172 448.783 440.875 438.486 440.875 425.783V397.533Z" fill="#626262"/>
<path d="M555.661 328.57H753.253V397.534H555.661V328.57Z" fill="#626262"/>
<path d="M753.253 328.57H768.313V388.46H753.252L753.253 328.57Z" fill="#626262"/>
<path d="M768.313 328.57H924.876V388.46H768.313V328.57Z" fill="#626262"/>
<path d="M861.211 266.853H924.876V328.57L861.211 328.57V266.853Z" fill="#626262"/>
<path d="M886.157 138.58H924.876L924.876 266.853L886.157 266.854V138.58Z" fill="#626262"/>
<path d="M886.157 0.924561H938.194V138.58L886.157 138.58V0.924561Z" fill="#626262"/>
</g>
<rect id="9" x="555.661" y="243.626" width="80.5254" height="66.5854" fill="#EFF6FF"/>
<path id="7" d="M439.505 206.486C439.505 188.099 454.411 173.193 472.798 173.193H508.587C526.974 173.193 541.879 188.099 541.879 206.486V217.767H439.505V206.486Z" fill="#EFF6FF"/>
<rect id="11" x="726.209" y="261.764" width="27.0435" height="48.4473" fill="#EFF6FF"/>
<rect id="15" x="799.052" y="134.579" width="70.6704" height="45.0271" fill="#FDFFC1"/>
<g id="10">
<path d="M645.208 243.626H723.081V310.211H645.208V243.626Z" fill="#EFF6FF"/>
<path d="M723.081 243.626H753.252V258.479H723.081V243.626Z" fill="#EFF6FF"/>
</g>
<rect id="12" x="768.314" y="266.853" width="18.2886" height="51.7295" fill="#EFF6FF"/>
<rect id="13" x="791.136" y="266.853" width="31.1978" height="51.7295" fill="#EFF6FF"/>
<rect id="14" x="826.868" y="266.853" width="26.126" height="51.7295" fill="#EFF6FF"/>
<rect id="16" x="934.792" y="367.508" width="115.8" height="58.4485" fill="#EFF6FF"/>
<rect id="17" x="934.792" y="201.323" width="115.8" height="37.5671" fill="#EFF6FF"/>
<rect id="18" x="884.735" y="395.851" width="40.1421" height="30.1055" fill="#EFF6FF"/>
<rect id="19" x="934.792" y="148.421" width="115.8" height="46.8408" fill="#EFF6FF"/>
<rect id="20" x="949.617" y="89.0398" width="100.975" height="49.5398" fill="#EFF6FF"/>
<rect id="21" x="949.617" y="0.924561" width="100.975" height="78.2742" fill="#EFF6FF"/>
<rect id="22" x="702.917" y="0.924561" width="166.806" height="78.2742" fill="#EFF6FF"/>
<g id="23">
<path d="M702.917 86.4861H795.766V179.605H702.917V86.4861Z" fill="#EFF6FF"/>
<path d="M795.766 86.4861H869.722V132.101H795.766V86.4861Z" fill="#EFF6FF"/>
</g>
<g id="24">
<path d="M934.792 244.642H1050.59V274.9H934.792V244.642Z" fill="#EFF6FF"/>
<path d="M979.043 274.9H1050.59V297.358H979.043V274.9Z" fill="#EFF6FF"/>
</g>
<g id="25">
<path d="M934.792 300.485H1050.59V362.413H934.792V300.485Z" fill="#EFF6FF"/>
<path d="M934.792 283.505H971.192V300.485H934.792V283.505Z" fill="#EFF6FF"/>
</g>
</g>
</svg>
