<svg width="10" height="10" viewBox="0 0 10 10" fill="none" xmlns="http://www.w3.org/2000/svg">
<path d="M4.89653 0.0262993C4.96499 0.0146711 5.03566 0.0146711 5.10413 0.0262993L9.52118 0.801512C9.76854 0.844148 9.94742 1.03601 9.94742 1.25695C9.94742 1.47788 9.76854 1.66975 9.52118 1.71239L7.82724 2.01084V3.11746C7.82724 4.48765 6.56176 5.59814 5.00033 5.59814C3.4389 5.59814 2.17341 4.48765 2.17341 3.11746V2.01084L1.11332 1.82479V3.08645L1.46006 4.60587C1.47994 4.69695 1.45343 4.79192 1.38718 4.86363C1.32092 4.93533 1.21933 4.97797 1.11332 4.97797H0.406593C0.300584 4.97797 0.2012 4.93727 0.132736 4.86363C0.0642719 4.78998 0.0377695 4.69695 0.0598548 4.60587L0.406593 3.08645V1.69494C0.196783 1.63099 0.0532292 1.45657 0.0532292 1.25695C0.0532292 1.03601 0.23212 0.844148 0.479475 0.801512L4.89653 0.0262993ZM2.52457 6.36754C2.75647 6.30164 3.00603 6.37529 3.17388 6.53227L4.74193 7.99548C4.88107 8.12533 5.11738 8.12533 5.25652 7.99548L6.82457 6.53227C6.99242 6.37529 7.24198 6.30164 7.47388 6.36754C8.90942 6.77259 9.94742 7.95091 9.94742 9.34435C9.94742 9.67382 9.64265 9.93933 9.26941 9.93933H0.731247C0.358006 9.93933 0.0532292 9.67188 0.0532292 9.34435C0.0532292 7.95091 1.09124 6.77259 2.52457 6.36754Z" fill="#183447"/>
</svg>
