<svg width="23" height="23" viewBox="0 0 23 23" fill="none" xmlns="http://www.w3.org/2000/svg">
<path d="M9.46436 2.25146L10.5483 1.16748C11.0073 0.708496 11.7495 0.708496 12.2036 1.16748L21.6958 10.6548C22.1548 11.1138 22.1548 11.856 21.6958 12.3101L12.2036 21.8022C11.7446 22.2612 11.0024 22.2612 10.5483 21.8022L9.46436 20.7183C9.00049 20.2544 9.01025 19.4976 9.48389 19.0435L15.3677 13.438H1.33447C0.685059 13.438 0.162598 12.9155 0.162598 12.2661V10.7036C0.162598 10.0542 0.685059 9.53174 1.33447 9.53174H15.3677L9.48389 3.92627C9.00537 3.47217 8.99561 2.71533 9.46436 2.25146Z" fill="#183447"/>
</svg>
