<svg width="12" height="12" viewBox="0 0 12 12" fill="none" xmlns="http://www.w3.org/2000/svg">
<path d="M5.74292 -0.000610352C2.57042 -0.000610352 0 2.56981 0 5.74231C0 8.91481 2.57042 11.4852 5.74292 11.4852C8.91542 11.4852 11.4858 8.91481 11.4858 5.74231C11.4858 2.56981 8.91542 -0.000610352 5.74292 -0.000610352ZM7.06518 8.10663L5.02274 6.62227C4.95095 6.56901 4.90927 6.48565 4.90927 6.39765V2.50034C4.90927 2.3475 5.03432 2.22246 5.18715 2.22246H6.29869C6.45152 2.22246 6.57657 2.3475 6.57657 2.50034V5.68905L8.04704 6.7589C8.17208 6.84921 8.19756 7.02289 8.10724 7.14794L7.45422 8.04642C7.36391 8.16916 7.19023 8.19695 7.06518 8.10663Z" fill="#183447"/>
</svg>
