<svg width="12" height="16" viewBox="0 0 12 16" fill="none" xmlns="http://www.w3.org/2000/svg">
<path d="M11.25 0H0.75C0.335781 0 0 0.335781 0 0.75V1.25C0 1.66422 0.335781 2 0.75 2C0.75 4.84266 2.34425 7.24169 4.52631 8C2.34425 8.75831 0.75 11.1573 0.75 14C0.335781 14 0 14.3358 0 14.75V15.25C0 15.6642 0.335781 16 0.75 16H11.25C11.6642 16 12 15.6642 12 15.25V14.75C12 14.3358 11.6642 14 11.25 14C11.25 11.1573 9.65575 8.75831 7.47369 8C9.65575 7.24169 11.25 4.84266 11.25 2C11.6642 2 12 1.66422 12 1.25V0.75C12 0.335781 11.6642 0 11.25 0ZM8.90381 12H3.09625C3.62934 10.5376 4.72425 9.5 6 9.5C7.27566 9.5 8.37069 10.5374 8.90381 12ZM8.90441 4H3.09619C2.87463 3.39212 2.75 2.71087 2.75 2H9.25C9.25 2.71266 9.12541 3.39334 8.90441 4Z" fill="#183447"/>
</svg>
